<?xml version="1.0" encoding="iso-8859-1"?>
<!-- Generator: Adobe Illustrator 19.0.0, SVG Export Plug-In . SVG Version: 6.00 Build 0)  -->
<svg version="1.1" id="Capa_1" xmlns="http://www.w3.org/2000/svg" xmlns:xlink="http://www.w3.org/1999/xlink" x="0px" y="0px"
	 viewBox="0 0 512 512" style="enable-background:new 0 0 512 512;" xml:space="preserve">
<path style="fill:#FAC55A;" d="M301.697,209.073c-26.211-81.141-113.316-125.696-194.556-99.507
	c-81.24,26.179-125.849,113.178-99.628,194.32c26.211,81.141,113.316,125.696,194.556,99.507
	C283.309,377.214,327.918,290.215,301.697,209.073z M154.574,380.014c-92.764,0-151.928-98.11-110.017-179.825
	c49.907-97.37,193.778-86.676,227.713,18.365C298.139,298.641,238.039,380.014,154.574,380.014z"/>
<path style="fill:#F0A835;" d="M504.487,296.177c-26.211-81.141-113.315-125.696-194.556-99.507
	c-81.24,26.179-125.849,113.178-99.628,194.319c26.211,81.141,113.316,125.696,194.556,99.507
	C486.099,464.317,530.708,377.318,504.487,296.177z M357.364,467.117c-92.764,0-151.928-98.11-110.017-179.825
	c49.907-97.37,193.778-86.676,227.713,18.365C500.93,385.745,440.829,467.117,357.364,467.117z"/>
<path style="fill:#DC527C;" d="M436.248,133.067c-0.455,0.332-1.092,0.127-1.267-0.408c-1.397-4.275-7.504-19.56-24.843-25.147
	c-18.051-5.817-35.946,7.057-42.298,26.719c-6.64,20.555-0.546,48.97,27.562,81.975c5.896,6.923,15.234,9.933,24.07,7.757
	c42.121-10.373,63.694-29.871,70.334-50.427c6.352-19.662-0.635-40.555-18.685-46.372
	C453.783,121.576,439.883,130.413,436.248,133.067z"/>
<path style="fill:#BF476C;" d="M471.121,127.164c-2.149-0.693-4.244-1.162-6.274-1.451c3.559,8.582,3.859,19.1,0.566,29.293
	c-6.64,20.555-28.213,40.053-70.334,50.426c-2.574,0.634-5.19,0.815-7.752,0.6c2.464,3.34,5.143,6.73,8.075,10.173
	c5.896,6.923,15.234,9.933,24.07,7.757c42.121-10.373,63.694-29.871,70.334-50.426C496.158,153.874,489.172,132.981,471.121,127.164
	z"/>
<path style="fill:#34B2CC;" d="M86.714,40.962c0.455,0.332,1.092,0.127,1.267-0.408c1.397-4.275,7.504-19.56,24.843-25.147
	c18.051-5.817,35.946,7.057,42.298,26.719c6.64,20.555,0.546,48.97-27.562,81.975c-5.896,6.923-15.234,9.933-24.07,7.757
	c-42.121-10.373-63.694-29.871-70.334-50.427c-6.352-19.662,0.635-40.555,18.685-46.372C69.178,29.472,83.078,38.308,86.714,40.962z
	"/>
<path style="fill:#2E9EB5;" d="M155.121,42.125c-6.352-19.662-24.247-32.536-42.297-26.719c-5.73,1.847-10.227,4.754-13.739,7.972
	c12.038,2.884,22.334,13.396,26.834,27.326c6.522,20.188,0.744,47.959-26.091,80.213c1.204,0.321,2.423,0.636,3.662,0.941
	c8.836,2.176,18.174-0.833,24.07-7.757C155.667,91.095,161.761,62.681,155.121,42.125z"/>
<path style="fill:#FAC55A;" d="M288.638,179.557c-7.602,7.61-15.206,15.219-22.814,22.823c2.442,5.121,4.613,10.501,6.446,16.174
	c4.672,14.464,6.527,28.966,5.959,43.027h30.888c0.574-17.332-1.781-35.055-7.421-52.509
	C298.313,198.598,293.907,188.739,288.638,179.557z"/>
<g>
</g>
<g>
</g>
<g>
</g>
<g>
</g>
<g>
</g>
<g>
</g>
<g>
</g>
<g>
</g>
<g>
</g>
<g>
</g>
<g>
</g>
<g>
</g>
<g>
</g>
<g>
</g>
<g>
</g>
</svg>
